<?xml version="1.0" encoding="UTF-8" standalone="no"?>
<svg
   xmlns:dc="http://purl.org/dc/elements/1.1/"
   xmlns:cc="http://creativecommons.org/ns#"
   xmlns:rdf="http://www.w3.org/1999/02/22-rdf-syntax-ns#"
   xmlns:svg="http://www.w3.org/2000/svg"
   xmlns="http://www.w3.org/2000/svg"
   xmlns:sodipodi="http://sodipodi.sourceforge.net/DTD/sodipodi-0.dtd"
   xmlns:inkscape="http://www.inkscape.org/namespaces/inkscape"
   viewBox="0 0 180 200"
   version="1.1"
   id="svg4"
   sodipodi:docname="qq.svg"
   width="180"
   height="200"
   inkscape:version="0.92.2 2405546, 2018-03-11">
  <metadata
     id="metadata10">
    <rdf:RDF>
      <cc:Work
         rdf:about="">
        <dc:format>image/svg+xml</dc:format>
        <dc:type
           rdf:resource="http://purl.org/dc/dcmitype/StillImage" />
        <dc:title />
      </cc:Work>
    </rdf:RDF>
  </metadata>
  <defs
     id="defs8" />
  <sodipodi:namedview
     pagecolor="#ffffff"
     bordercolor="#666666"
     borderopacity="1"
     objecttolerance="10"
     gridtolerance="10"
     guidetolerance="10"
     inkscape:pageopacity="0"
     inkscape:pageshadow="2"
     inkscape:window-width="956"
     inkscape:window-height="1052"
     id="namedview6"
     showgrid="false"
     fit-margin-top="0"
     fit-margin-left="0"
     fit-margin-right="0"
     fit-margin-bottom="0"
     inkscape:zoom="0.4609375"
     inkscape:cx="-361.80891"
     inkscape:cy="368.81421"
     inkscape:window-x="962"
     inkscape:window-y="0"
     inkscape:window-maximized="0"
     inkscape:current-layer="svg4"
     scale-x="1" />
  <path
     d="m 177.69135,164.23612 c -4.81866,0.54413 -18.75454,-20.60194 -18.75454,-20.60194 0,12.24414 -6.74594,28.22144 -21.34278,39.76011 7.04109,2.02813 22.9281,7.4871 19.14876,13.44568 -3.05859,4.82148 -52.4717,3.07852 -66.737018,1.57695 -14.265314,1.50157 -63.678431,3.24453 -66.737017,-1.57695 -3.781423,-5.95702 12.089689,-11.4117 19.140401,-13.44333 -14.598929,-11.53867 -21.346127,-27.51756 -21.346127,-39.76246 0,0 -13.935876,21.14607 -18.7541089,20.60194 C 0.06389531,163.9822 -2.8851558,152.65643 6.216601,125.28928 10.506396,112.3893 15.412006,101.6651 22.99952,83.96942 21.722322,38.3058 41.914582,0.00233 89.999918,0 c 47.549792,0.002 68.210302,37.5519 67.001242,83.96982 7.57456,17.6652 12.50524,28.45698 16.78291,41.31946 9.1005,27.36715 6.15229,38.69254 3.90728,38.94684 z"
     id="path2"
     style="fill:#ffffff;fill-opacity:1;stroke-width:0.40411329"
     inkscape:connector-curvature="0" />
</svg>
