<?xml version="1.0" encoding="UTF-8" standalone="no"?>
<svg
   xmlns:dc="http://purl.org/dc/elements/1.1/"
   xmlns:cc="http://creativecommons.org/ns#"
   xmlns:rdf="http://www.w3.org/1999/02/22-rdf-syntax-ns#"
   xmlns:svg="http://www.w3.org/2000/svg"
   xmlns="http://www.w3.org/2000/svg"
   xmlns:sodipodi="http://sodipodi.sourceforge.net/DTD/sodipodi-0.dtd"
   xmlns:inkscape="http://www.inkscape.org/namespaces/inkscape"
   viewBox="0 0 170 170"
   version="1.1"
   id="svg4"
   sodipodi:docname="skype.svg"
   inkscape:version="0.92.2 2405546, 2018-03-11"
   width="170"
   height="170">
  <metadata
     id="metadata10">
    <rdf:RDF>
      <cc:Work
         rdf:about="">
        <dc:format>image/svg+xml</dc:format>
        <dc:type
           rdf:resource="http://purl.org/dc/dcmitype/StillImage" />
        <dc:title />
      </cc:Work>
    </rdf:RDF>
  </metadata>
  <defs
     id="defs8" />
  <sodipodi:namedview
     pagecolor="#ffffff"
     bordercolor="#666666"
     borderopacity="1"
     objecttolerance="10"
     gridtolerance="10"
     guidetolerance="10"
     inkscape:pageopacity="0"
     inkscape:pageshadow="2"
     inkscape:window-width="956"
     inkscape:window-height="1052"
     id="namedview6"
     showgrid="false"
     inkscape:zoom="0.90509668"
     inkscape:cx="-67.3506"
     inkscape:cy="175.23638"
     inkscape:window-x="962"
     inkscape:window-y="0"
     inkscape:window-maximized="0"
     inkscape:current-layer="svg4"
     fit-margin-top="0"
     fit-margin-left="0"
     fit-margin-right="0"
     fit-margin-bottom="0" />
  <path
     d="m 161.19415,101.64322 c 1.10069,-5.31368 1.78387,-10.96896 1.78387,-16.624237 0,-43.078819 -34.88047,-77.921415 -77.921251,-77.921415 -5.65527,0 -11.272584,0.645235 -16.624215,1.783878 C 61.221137,3.30208 52.263797,0 42.509407,0 19.053323,0 0,19.053362 0,42.509486 0,52.263899 3.3020699,61.221258 8.8434746,68.394731 7.7427848,73.708413 7.0595979,79.363697 7.0595979,85.018983 c 0,43.078807 34.8804861,77.921397 77.9212611,77.921397 5.655268,0 11.272582,-0.64522 16.624211,-1.78387 7.21142,5.54141 16.16876,8.84349 25.88519,8.84349 23.45608,0 42.50942,-19.05336 42.50942,-42.50948 0.038,-9.71647 -3.26413,-18.67381 -8.80553,-25.8473 z m -73.860095,34.72874 c -24.898364,0 -45.735565,-11.08284 -45.735565,-24.67069 0,-6.07278 3.415936,-11.61419 11.196675,-11.61419 11.841906,0 12.942596,17.04175 33.4382,17.04175 9.754395,0 16.054895,-4.32687 16.054895,-9.98215 0,-7.09756 -6.072776,-8.19826 -15.941029,-10.62737 -23.721766,-5.84505 -44.710785,-8.350076 -44.710785,-33.096671 0,-22.469299 22.241528,-30.781424 41.408717,-30.781424 20.913107,0 42.053957,8.312125 42.053957,21.027011 0,6.414381 -4.32685,12.069661 -11.50032,12.069661 -10.74122,0 -11.08281,-12.714887 -28.466126,-12.714887 -9.754387,0 -15.941023,2.656836 -15.941023,8.539848 0,7.515071 7.894603,8.274172 26.226788,12.525116 15.713301,3.529814 34.425031,10.171913 34.425031,29.453006 0,22.43134 -21.67221,32.83099 -42.509415,32.83099 z"
     id="path2"
     style="fill:#ffffff;fill-opacity:1;stroke-width:0.37954864"
     inkscape:connector-curvature="0" />
</svg>
